# xmcd
#
# Track frame offsets: 
#        188
#        25388
#        35813
#        57488
#        75413
#        82913
#        105038
#        111863
#        145763
#        159863
#        169163
#        179363
#        190688
#        199838
#        215813
#        224663
#        234638
#        240713
#        252263
#        257213
#        266138
#
# Disc length: 3840 seconds
#
# Revision: 5
# Processed by: cddbd v1.5.2PL0 Copyright (c) Steve Scherf et al.
# Submitted via: ExactAudioCopy v1.3
#
DISCID=2d0efe15
DTITLE=José Miguel Moreno - Ars Melancholiae
DYEAR=1994
DGENRE=
TTITLE0=Ciaconne
TTITLE1=Sonata in D major (K. 5) - I. Prelude
TTITLE2=Sonata in D major (K. 5) - II. Allemande
TTITLE3=Sonata in D major (K. 5) - III. Courante
TTITLE4=Sonata in D major (K. 5) - IV.Bouree
TTITLE5=Sonata in D major (K. 5) - V. Sarabande
TTITLE6=Sonata in D major (K. 5) - VI. Menuet
TTITLE7=Sonata in D major (K. 5) - VII. Passagaille
TTITLE8=Sonata in D major (K. 5) - VIII. Giga
TTITLE9=Prelude
TTITLE10=Menuet
TTITLE11=Fantasie
TTITLE12=Sonata in D minor (K. 9) - I. Prelude
TTITLE13=Sonata in D minor (K. 9) - II. Allemande
TTITLE14=Sonata in D minor (K. 9) - III. Courente
TTITLE15=Sonata in D minor (K. 9) - IV. Bouree
TTITLE16=Sonata in D minor (K. 9) - V. Menuet
TTITLE17=Sonata in D minor (K. 9) - VI. Sarabande
TTITLE18=Sonata in D minor (K. 9) - VII. Menuet
TTITLE19=Sonata in D minor (K. 9) - VIII. Gigue
TTITLE20=Ciacona
EXTD=
EXTT0=
EXTT1=
EXTT2=
EXTT3=
EXTT4=
EXTT5=
EXTT6=
EXTT7=
EXTT8=
EXTT9=
EXTT10=
EXTT11=
EXTT12=
EXTT13=
EXTT14=
EXTT15=
EXTT16=
EXTT17=
EXTT18=
EXTT19=
EXTT20=
PLAYORDER=
